<svg width="16" height="16" viewBox="0 0 16 16" fill="none" xmlns="http://www.w3.org/2000/svg">
<path d="M7.52669 6.80667C7.58866 6.86915 7.6624 6.91875 7.74364 6.9526C7.82488 6.98644 7.91201 7.00387 8.00002 7.00387C8.08803 7.00387 8.17517 6.98644 8.25641 6.9526C8.33765 6.91875 8.41138 6.86915 8.47336 6.80667L10.4734 4.80667C10.5989 4.68113 10.6694 4.51087 10.6694 4.33333C10.6694 4.1558 10.5989 3.98554 10.4734 3.86C10.3478 3.73447 10.1776 3.66394 10 3.66394C9.82249 3.66394 9.65222 3.73447 9.52669 3.86L8.00002 5.39334L6.47336 3.86C6.4112 3.79784 6.3374 3.74854 6.25619 3.7149C6.17497 3.68126 6.08793 3.66394 6.00002 3.66394C5.82249 3.66394 5.65222 3.73447 5.52669 3.86C5.46453 3.92216 5.41522 3.99595 5.38158 4.07717C5.34794 4.15838 5.33063 4.24543 5.33063 4.33333C5.33063 4.51087 5.40115 4.68113 5.52669 4.80667L7.52669 6.80667ZM8.47336 9.86C8.41138 9.79752 8.33765 9.74792 8.25641 9.71407C8.17517 9.68023 8.08803 9.6628 8.00002 9.6628C7.91201 9.6628 7.82488 9.68023 7.74364 9.71407C7.6624 9.74792 7.58866 9.79752 7.52669 9.86L5.52669 11.86C5.40115 11.9855 5.33063 12.1558 5.33063 12.3333C5.33063 12.5109 5.40115 12.6811 5.52669 12.8067C5.65222 12.9322 5.82249 13.0027 6.00002 13.0027C6.17756 13.0027 6.34782 12.9322 6.47336 12.8067L8.00002 11.2733L9.52669 12.8067C9.58866 12.8692 9.6624 12.9188 9.74364 12.9526C9.82488 12.9864 9.91201 13.0039 10 13.0039C10.088 13.0039 10.1752 12.9864 10.2564 12.9526C10.3376 12.9188 10.4114 12.8692 10.4734 12.8067C10.5358 12.7447 10.5854 12.671 10.6193 12.5897C10.6531 12.5085 10.6706 12.4213 10.6706 12.3333C10.6706 12.2453 10.6531 12.1582 10.6193 12.077C10.5854 11.9957 10.5358 11.922 10.4734 11.86L8.47336 9.86Z" fill="#1F2937"/>
</svg>
