<svg width="28" height="28" viewBox="0 0 28 28" fill="none" xmlns="http://www.w3.org/2000/svg">
<g clip-path="url(#clip0_10_2447)">
<path d="M17.5001 21V21.875C17.5001 22.8033 17.1314 23.6935 16.475 24.3499C15.8186 25.0063 14.9284 25.375 14.0001 25.375C13.0719 25.375 12.1817 25.0063 11.5253 24.3499C10.8689 23.6935 10.5001 22.8033 10.5001 21.875V21M23.3889 19.2188C21.9845 17.5 20.993 16.625 20.993 11.8863C20.993 7.54689 18.7771 6.00087 16.9533 5.25002C16.711 5.15048 16.483 4.92189 16.4091 4.67306C16.0892 3.58423 15.1923 2.62502 14.0001 2.62502C12.808 2.62502 11.9105 3.58478 11.5939 4.67416C11.5201 4.92572 11.292 5.15048 11.0498 5.25002C9.22374 6.00197 7.00999 7.54252 7.00999 11.8863C7.00726 16.625 6.01577 17.5 4.6114 19.2188C4.02952 19.9309 4.53921 21 5.55695 21H22.4488C23.4611 21 23.9675 19.9276 23.3889 19.2188Z" stroke="#374151" stroke-width="1.49003" stroke-linecap="round" stroke-linejoin="round"/>
<circle cx="22.3244" cy="5.67568" r="5.17568" fill="#D34645" stroke="white"/>
</g>
<defs>
<clipPath id="clip0_10_2447">
<rect width="28" height="28" fill="white"/>
</clipPath>
</defs>
</svg>
