<svg width="24" height="24" viewBox="0 0 24 24" fill="none" xmlns="http://www.w3.org/2000/svg">
<g clip-path="url(#clip0_10_2411)">
<path d="M0.5 23.5H23.5" stroke="white" stroke-miterlimit="10" stroke-linecap="round"/>
<path d="M4.5 19C4.5 18.8674 4.44732 18.7402 4.35355 18.6464C4.25979 18.5527 4.13261 18.5 4 18.5H2C1.86739 18.5 1.74021 18.5527 1.64645 18.6464C1.55268 18.7402 1.5 18.8674 1.5 19V23.5H4.5V19Z" fill="white" stroke="white" stroke-miterlimit="10" stroke-linecap="round"/>
<path d="M10.5 14C10.5 13.8674 10.4473 13.7402 10.3536 13.6464C10.2598 13.5527 10.1326 13.5 10 13.5H8C7.86739 13.5 7.74021 13.5527 7.64645 13.6464C7.55268 13.7402 7.5 13.8674 7.5 14V23.5H10.5V14Z" fill="white" stroke="white" stroke-miterlimit="10" stroke-linecap="round"/>
<path d="M16.5 16C16.5 15.8674 16.4473 15.7402 16.3536 15.6464C16.2598 15.5527 16.1326 15.5 16 15.5H14C13.8674 15.5 13.7402 15.5527 13.6464 15.6464C13.5527 15.7402 13.5 15.8674 13.5 16V23.5H16.5V16Z" fill="white" stroke="white" stroke-miterlimit="10" stroke-linecap="round"/>
<path d="M22.5 9C22.5 8.86739 22.4473 8.74021 22.3536 8.64645C22.2598 8.55268 22.1326 8.5 22 8.5H20C19.8674 8.5 19.7402 8.55268 19.6464 8.64645C19.5527 8.74021 19.5 8.86739 19.5 9V23.5H22.5V9Z" fill="white" stroke="white" stroke-miterlimit="10" stroke-linecap="round"/>
<path d="M3 13C3.82843 13 4.5 12.3284 4.5 11.5C4.5 10.6716 3.82843 10 3 10C2.17157 10 1.5 10.6716 1.5 11.5C1.5 12.3284 2.17157 13 3 13Z" fill="white" stroke="white" stroke-miterlimit="10" stroke-linecap="round"/>
<path d="M9 8C9.82843 8 10.5 7.32843 10.5 6.5C10.5 5.67157 9.82843 5 9 5C8.17157 5 7.5 5.67157 7.5 6.5C7.5 7.32843 8.17157 8 9 8Z" fill="white" stroke="white" stroke-miterlimit="10" stroke-linecap="round"/>
<path d="M15 10C15.8284 10 16.5 9.32843 16.5 8.5C16.5 7.67157 15.8284 7 15 7C14.1716 7 13.5 7.67157 13.5 8.5C13.5 9.32843 14.1716 10 15 10Z" fill="white" stroke="white" stroke-miterlimit="10" stroke-linecap="round"/>
<path d="M21 3.5C21.8284 3.5 22.5 2.82843 22.5 2C22.5 1.17157 21.8284 0.5 21 0.5C20.1716 0.5 19.5 1.17157 19.5 2C19.5 2.82843 20.1716 3.5 21 3.5Z" fill="white" stroke="white" stroke-miterlimit="10" stroke-linecap="round"/>
<path d="M4.261 10.45L7.848 7.46" stroke="white" stroke-miterlimit="10" stroke-linecap="round"/>
<path d="M10.424 6.974L13.577 8.025" stroke="white" stroke-miterlimit="10" stroke-linecap="round"/>
<path d="M19.8 2.9L16.041 7.285" stroke="white" stroke-miterlimit="10" stroke-linecap="round"/>
</g>
<defs>
<clipPath id="clip0_10_2411">
<rect width="24" height="24" fill="white"/>
</clipPath>
</defs>
</svg>
